<svg id="visual" viewBox="0 0 960 540" width="960" height="540" xmlns="http://www.w3.org/2000/svg" xmlns:xlink="http://www.w3.org/1999/xlink" version="1.1"><rect x="0" y="0" width="960" height="540" fill="#140327"></rect><path d="M0 359L137 326L274 356L411 403L549 398L686 361L823 368L960 343L960 541L823 541L686 541L549 541L411 541L274 541L137 541L0 541Z" fill="#1b0433"></path><path d="M0 400L137 360L274 417L411 386L549 382L686 404L823 379L960 424L960 541L823 541L686 541L549 541L411 541L274 541L137 541L0 541Z" fill="#470746"></path><path d="M0 438L137 436L274 400L411 428L549 440L686 440L823 423L960 442L960 541L823 541L686 541L549 541L411 541L274 541L137 541L0 541Z" fill="#760050"></path><path d="M0 461L137 437L274 484L411 438L549 480L686 443L823 474L960 467L960 541L823 541L686 541L549 541L411 541L274 541L137 541L0 541Z" fill="#a5004f"></path><path d="M0 490L137 483L274 493L411 493L549 511L686 502L823 478L960 489L960 541L823 541L686 541L549 541L411 541L274 541L137 541L0 541Z" fill="#cf0a43"></path></svg>